<svg width="414" height="180" viewBox="0 0 414 180" fill="none" xmlns="http://www.w3.org/2000/svg">
<ellipse cx="37.7802" cy="27.756" rx="27.1876" ry="27.756" fill="#CEDFA3"/>
<path d="M76.2666 102.451C76.2666 122.16 59.1937 127.528 38.1333 127.528C17.0729 127.528 0 122.16 0 102.451C0 82.7418 17.0729 66.7645 38.1333 66.7645C59.1937 66.7645 76.2666 82.7418 76.2666 102.451Z" fill="#CEDFA3"/>
<ellipse cx="27.5407" cy="60.7632" rx="27.5407" ry="26.2557" fill="#CEDFA3"/>
<ellipse cx="48.7259" cy="60.7632" rx="27.5407" ry="26.2557" fill="#CEDFA3"/>
<path d="M36 77.8268L36 160.393" stroke="#BCAB9A" stroke-width="5" stroke-linecap="round"/>
<ellipse cx="294.415" cy="46.9742" rx="26.3598" ry="39.9742" fill="#CEDFA3"/>
<ellipse cx="294.415" cy="87.238" rx="30.4151" ry="40.2638" fill="#CEDFA3"/>
<line x1="294.308" y1="70.9095" x2="294.308" y2="161.5" stroke="#BCAB9A" stroke-width="5" stroke-linecap="round"/>
<ellipse cx="206.5" cy="59.1429" rx="23.8333" ry="36.1429" fill="#CEDFA3"/>
<ellipse cx="206.5" cy="95.5476" rx="27.5" ry="36.4048" fill="#CEDFA3"/>
<line x1="205.862" y1="92.4955" x2="205.862" y2="176.823" stroke="#BCAB9A" stroke-width="5" stroke-linecap="round"/>
<ellipse cx="388.98" cy="63.8313" rx="21.6496" ry="32.8313" fill="#CEDFA3"/>
<ellipse cx="388.98" cy="96.9005" rx="24.9803" ry="33.0692" fill="#CEDFA3"/>
<line x1="388.63" y1="94.3571" x2="388.63" y2="170.5" stroke="#BCAB9A" stroke-width="5" stroke-linecap="round"/>
<ellipse cx="127.98" cy="63.8313" rx="21.6496" ry="32.8313" fill="#CEDFA3"/>
<ellipse cx="127.98" cy="96.9005" rx="24.9803" ry="33.0692" fill="#CEDFA3"/>
<line x1="127.63" y1="94.3571" x2="127.63" y2="170.5" stroke="#BCAB9A" stroke-width="5" stroke-linecap="round"/>
</svg>
